<?xml version="1.0" encoding="utf-8"?>
<!-- Generator: Adobe Illustrator 15.1.0, SVG Export Plug-In . SVG Version: 6.00 Build 0)  -->
<!DOCTYPE svg PUBLIC "-//W3C//DTD SVG 1.1//EN" "http://www.w3.org/Graphics/SVG/1.1/DTD/svg11.dtd">
<svg version="1.1" id="Layer_5" xmlns="http://www.w3.org/2000/svg" xmlns:xlink="http://www.w3.org/1999/xlink" x="0px" y="0px"
	 width="18.324px" height="15.333px" viewBox="0 0 18.324 15.333" enable-background="new 0 0 18.324 15.333" xml:space="preserve">
<g>
	<g>
		<path fill="#00375D" d="M4.348,15.333L4.348,15.333c-0.353,0-0.675-0.208-0.82-0.528L0.079,7.177
			C-0.019,6.96-0.026,6.715,0.058,6.49C0.144,6.265,0.311,6.086,0.53,5.988l13.078-5.912c0.438-0.2,0.994,0.011,1.19,0.449
			l3.447,7.624c0.202,0.455,0,0.988-0.449,1.191L4.716,15.253C4.601,15.307,4.476,15.333,4.348,15.333L4.348,15.333z M1.559,7.057
			l3.037,6.719l12.173-5.503l-3.037-6.719L1.559,7.057L1.559,7.057z"/>
	</g>
	<g>
		<path fill="#00375D" d="M13.896,0.713L0.816,6.625C0.716,6.671,0.671,6.789,0.716,6.89l3.447,7.627
			c0.047,0.101,0.165,0.146,0.266,0.101L17.51,8.704c0.101-0.046,0.146-0.164,0.101-0.267l-3.447-7.625
			C14.117,0.712,13.997,0.667,13.896,0.713z M15.229,7.746c-0.211,0.525-0.251,0.992-0.237,1.331l-8.619,3.896
			c-0.244-0.234-0.621-0.513-1.157-0.701c-0.547-0.19-1.073-0.3-1.465-0.361L2.4,8.923c0.212-0.334,0.478-0.802,0.696-1.339
			C3.31,7.059,3.35,6.591,3.334,6.252l8.618-3.896c0.246,0.236,0.623,0.514,1.158,0.702c0.547,0.19,1.046,0.235,1.408,0.234
			l1.408,3.115C15.714,6.741,15.447,7.209,15.229,7.746z"/>
		<path fill="#00375D" d="M4.348,14.823L4.348,14.823c-0.153,0-0.292-0.09-0.356-0.229L0.545,6.968
			c-0.043-0.095-0.046-0.2-0.011-0.298c0.039-0.098,0.11-0.175,0.205-0.217l13.079-5.912c0.191-0.089,0.431,0.005,0.517,0.195
			l3.447,7.623c0.087,0.197,0,0.429-0.195,0.517l-13.08,5.912C4.456,14.812,4.402,14.823,4.348,14.823L4.348,14.823z M13.991,0.89
			L0.896,6.797l3.452,7.648c0,0,0.002,0,0.003-0.001l13.08-5.912L13.991,0.89L13.991,0.89z M6.333,13.199l-0.092-0.09
			c-0.207-0.2-0.563-0.476-1.088-0.66c-0.443-0.153-0.926-0.272-1.433-0.354L3.62,12.08L2.187,8.907l0.055-0.086
			C2.429,8.526,2.7,8.058,2.923,7.513C3.089,7.102,3.164,6.681,3.146,6.26L3.141,6.132l8.852-4.001l0.093,0.089
			c0.205,0.198,0.561,0.474,1.088,0.661c0.424,0.147,0.871,0.223,1.329,0.223h0.122l0.066,0.111l1.45,3.207l-0.054,0.086
			c-0.272,0.429-0.509,0.881-0.684,1.31c-0.207,0.512-0.235,0.963-0.224,1.252l0.005,0.127L6.333,13.199L6.333,13.199z M3.88,11.739
			c0.492,0.084,0.963,0.203,1.397,0.354c0.516,0.182,0.89,0.442,1.131,0.656L14.8,8.957c-0.001-0.431,0.084-0.862,0.254-1.281
			c0.174-0.427,0.396-0.858,0.66-1.283l-1.317-2.913c-0.473-0.013-0.921-0.094-1.349-0.243c-0.518-0.183-0.891-0.445-1.131-0.657
			L3.526,6.371c0.001,0.432-0.085,0.863-0.255,1.284C3.06,8.176,2.806,8.627,2.614,8.938L3.88,11.739L3.88,11.739z"/>
	</g>
	<g>
		<path fill="#00375D" d="M10.946,11.069l-0.372,0.167l-0.344-0.762c-0.529,0.17-0.955,0.231-1.274,0.179
			c-0.57-0.096-1.012-0.499-1.323-1.21l1.034-0.469c0.182,0.307,0.328,0.5,0.442,0.58c0.177,0.126,0.423,0.148,0.736,0.068
			L9.106,7.987L8.755,8.035c-0.553,0.078-0.987,0.034-1.302-0.13c-0.318-0.166-0.556-0.428-0.72-0.787
			C6.627,6.88,6.569,6.647,6.559,6.417c-0.011-0.229,0.023-0.445,0.1-0.649c0.099-0.264,0.246-0.48,0.437-0.649
			C7.21,5.014,7.393,4.893,7.646,4.754L7.414,4.246l0.372-0.17L8.02,4.594c0.43-0.154,0.8-0.198,1.115-0.135
			c0.552,0.079,0.976,0.421,1.268,1.028L9.395,5.941C9.271,5.725,9.16,5.576,9.057,5.495C8.879,5.358,8.66,5.337,8.399,5.433
			l0.659,1.46C9.76,6.828,10.25,6.83,10.531,6.896c0.464,0.113,0.807,0.414,1.027,0.901c0.291,0.644,0.265,1.218-0.074,1.721
			c-0.21,0.31-0.504,0.569-0.886,0.78L10.946,11.069z M8.03,5.608C7.81,5.715,7.673,5.848,7.617,6.01
			C7.562,6.171,7.578,6.352,7.666,6.548c0.098,0.216,0.255,0.349,0.473,0.4c0.122,0.028,0.287,0.03,0.5,0.006L8.03,5.608z
			 M10.212,9.443c0.188-0.115,0.312-0.228,0.373-0.334c0.107-0.19,0.095-0.429-0.036-0.717c-0.099-0.22-0.252-0.359-0.458-0.421
			C9.968,7.938,9.782,7.929,9.536,7.945L10.212,9.443z"/>
	</g>
	
		<rect x="8.769" y="3.443" transform="matrix(0.9116 -0.4111 0.4111 0.9116 -2.2988 4.416)" fill="#00375D" width="0.698" height="8.221"/>
</g>
</svg>
