<?xml version="1.0" encoding="utf-8"?>
<!-- Generator: Adobe Illustrator 15.1.0, SVG Export Plug-In . SVG Version: 6.00 Build 0)  -->
<!DOCTYPE svg PUBLIC "-//W3C//DTD SVG 1.1//EN" "http://www.w3.org/Graphics/SVG/1.1/DTD/svg11.dtd">
<svg version="1.1" id="Layer_5" xmlns="http://www.w3.org/2000/svg" xmlns:xlink="http://www.w3.org/1999/xlink" x="0px" y="0px"
	 width="19.636px" height="14.039px" viewBox="0 0 19.636 14.039" enable-background="new 0 0 19.636 14.039" xml:space="preserve">
<path fill="#00375D" d="M18.091,2.851h-1.625V1.546C16.466,0.694,15.772,0,14.921,0H1.545C0.693,0,0,0.694,0,1.546v8.098
	c0,0.853,0.693,1.545,1.545,1.545H3.17v1.306c0,0.853,0.693,1.545,1.545,1.545h13.376c0.852,0,1.545-0.692,1.545-1.545V4.396
	C19.636,3.544,18.942,2.851,18.091,2.851z M18.37,4.396v1.515H4.437V4.396c0-0.154,0.125-0.279,0.278-0.279h13.376
	C18.245,4.117,18.37,4.242,18.37,4.396z M1.849,9.289V7.495H3.17v1.794H1.849z M18.091,12.772H4.715
	c-0.153,0-0.278-0.125-0.278-0.278v-4.05H18.37v4.05C18.37,12.647,18.245,12.772,18.091,12.772z"/>
</svg>
