<?xml version="1.0" encoding="utf-8"?>
<!-- Generator: Adobe Illustrator 15.1.0, SVG Export Plug-In . SVG Version: 6.00 Build 0)  -->
<!DOCTYPE svg PUBLIC "-//W3C//DTD SVG 1.1//EN" "http://www.w3.org/Graphics/SVG/1.1/DTD/svg11.dtd">
<svg version="1.1" id="Layer_5" xmlns="http://www.w3.org/2000/svg" xmlns:xlink="http://www.w3.org/1999/xlink" x="0px" y="0px"
	 width="22.832px" height="14.132px" viewBox="0 0 22.832 14.132" enable-background="new 0 0 22.832 14.132" xml:space="preserve">
<g>
	<path fill="#00375D" d="M6.302,11.753v-1.468c0-1.723,0.018-2.34,0.943-2.539l0.853-2.14C8.425,4.79,8.642,4.755,9.639,4.755h3.573
		c1.051,0,1.359,0.217,1.686,1.106l0.706,1.904c0.908,0.381,0.927,0.397,0.927,2.211v1.776h-0.871v0.599
		c0,0.635-0.219,1.088-0.762,1.088c-0.58,0-0.743-0.525-0.743-1.088v-0.599H8.66v0.653c0,0.653-0.271,0.997-0.743,0.997
		c-0.672,0-0.744-0.526-0.744-1.106v-0.544H6.302z M14.753,7.729L14.28,6.313c-0.254-0.726-0.309-0.761-0.941-0.761H9.747
		c-0.834,0-0.834,0.017-1.069,0.598L8.043,7.729"/>
	<g>
		<g>
			<g>
				<rect x="2.104" y="0.703" fill="#00375D" width="1.498" height="13.147"/>
				<path fill="#00375D" d="M3.884,14.132H1.823V0.423h2.061V14.132L3.884,14.132z M2.384,13.57h0.938V0.983H2.384V13.57
					L2.384,13.57z"/>
			</g>
			<g>
				<rect x="19.229" y="0.703" fill="#00375D" width="1.499" height="13.147"/>
				<path fill="#00375D" d="M21.009,14.132h-2.061V0.423h2.061V14.132L21.009,14.132z M19.509,13.57h0.939V0.983h-0.939V13.57
					L19.509,13.57z"/>
			</g>
		</g>
		<g>
			<rect x="0.28" y="0.28" fill="#00375D" width="22.271" height="1.5"/>
			<path fill="#00375D" d="M22.832,2.061H0V0h22.832V2.061L22.832,2.061z M0.562,1.499h21.709V0.562H0.562V1.499L0.562,1.499z"/>
		</g>
	</g>
</g>
</svg>
