<?xml version="1.0" encoding="utf-8"?>
<!-- Generator: Adobe Illustrator 15.1.0, SVG Export Plug-In . SVG Version: 6.00 Build 0)  -->
<!DOCTYPE svg PUBLIC "-//W3C//DTD SVG 1.1//EN" "http://www.w3.org/Graphics/SVG/1.1/DTD/svg11.dtd">
<svg version="1.1" id="Layer_5" xmlns="http://www.w3.org/2000/svg" xmlns:xlink="http://www.w3.org/1999/xlink" x="0px" y="0px"
	 width="15.035px" height="12.886px" viewBox="0 0 15.035 12.886" enable-background="new 0 0 15.035 12.886" xml:space="preserve">
<g>
	<path fill="#00375D" d="M5.552,7.114h-2.9v-2.9h2.9V7.114L5.552,7.114z M3.311,6.453h1.58V4.874h-1.58V6.453L3.311,6.453z"/>
	<path fill="#00375D" d="M8.994,7.114h-2.9v-2.9h2.9V7.114L8.994,7.114z M6.755,6.453h1.579V4.874H6.755V6.453L6.755,6.453z"/>
	<path fill="#00375D" d="M12.437,7.114H9.537v-2.9h2.899V7.114L12.437,7.114z M10.199,6.453h1.576V4.874h-1.576V6.453L10.199,6.453z
		"/>
	<path fill="#00375D" d="M5.552,10.677h-2.9V7.777h2.9V10.677L5.552,10.677z M3.311,10.016h1.58V8.438h-1.58V10.016L3.311,10.016z"
		/>
	<path fill="#00375D" d="M8.994,10.677h-2.9V7.777h2.9V10.677L8.994,10.677z M6.755,10.016h1.579V8.438H6.755V10.016L6.755,10.016z"
		/>
	<path fill="#00375D" d="M12.437,10.677H9.537V7.777h2.899V10.677L12.437,10.677z M10.199,10.016h1.576V8.438h-1.576V10.016
		L10.199,10.016z"/>
</g>
<path fill="#00375D" d="M0,0v12.886h15.035V0H0z M0.992,11.895V2.73h13.051v9.164H0.992z"/>
</svg>
