<?xml version="1.0" encoding="utf-8"?>
<!-- Generator: Adobe Illustrator 15.1.0, SVG Export Plug-In . SVG Version: 6.00 Build 0)  -->
<!DOCTYPE svg PUBLIC "-//W3C//DTD SVG 1.1//EN" "http://www.w3.org/Graphics/SVG/1.1/DTD/svg11.dtd">
<svg version="1.1" id="Layer_5" xmlns="http://www.w3.org/2000/svg" xmlns:xlink="http://www.w3.org/1999/xlink" x="0px" y="0px"
	 width="16.216px" height="15.058px" viewBox="0 0 16.216 15.058" enable-background="new 0 0 16.216 15.058" xml:space="preserve">
<path fill="#003A63" stroke="#1C1B1A" stroke-width="0.9526" d="M12.606,11.965"/>
<path fill="#003A63" stroke="#1C1B1A" stroke-width="0.9526" d="M14.272,7.529"/>
<g>
	<path fill="#00375D" d="M7.529,15.058C3.378,15.058,0,11.681,0,7.529C0,3.377,3.378,0,7.529,0s7.528,3.377,7.528,7.529h-1.571
		c0-3.285-2.672-5.958-5.957-5.958S1.571,4.244,1.571,7.529c0,3.284,2.673,5.957,5.958,5.957c1.719,0,3.354-0.742,4.486-2.038
		l1.184,1.034C11.768,14.119,9.701,15.058,7.529,15.058L7.529,15.058z"/>
</g>
<polygon fill="#00375D" points="16.216,7.828 13.508,10.186 12.437,6.759 "/>
<g>
	<path fill="#00375D" d="M4.365,6.019c0-0.608,0.164-1.073,0.492-1.395c0.283-0.283,0.655-0.425,1.116-0.425
		c0.424,0,0.785,0.158,1.084,0.477c0.299,0.317,0.448,0.688,0.448,1.111c0,0.438-0.097,0.859-0.292,1.266
		C7.108,7.278,6.86,7.666,6.471,8.217C6.365,8.367,6.208,8.601,6,8.918L5.825,9.18C5.713,9.351,5.627,9.485,5.569,9.585
		c-0.027,0.05-0.041,0.081-0.041,0.092H7.43v0.948H4.35V9.736c0-0.021,0.07-0.139,0.212-0.354C4.626,9.283,4.7,9.174,4.782,9.055
		l0.252-0.363C5.182,8.49,5.412,8.168,5.727,7.724C6.024,7.307,6.247,6.93,6.394,6.592c0.12-0.276,0.18-0.534,0.18-0.773
		c0-0.195-0.055-0.36-0.164-0.497C6.29,5.178,6.137,5.106,5.948,5.106c-0.27,0-0.461,0.155-0.574,0.466
		C5.337,5.675,5.318,5.798,5.318,5.941v0.246H4.365V6.019z"/>
	<path fill="#00375D" d="M7.552,8.268l1.712-4.068h0.968v4.068h0.62v0.974h-0.62v1.384H9.264V9.241H7.552V8.268z M9.264,8.268V6.261
		l-0.8,2.007H9.264z"/>
</g>
<path fill="#003A63" d="M12.016,11.448h1.981c0,0-0.577,0.812-1.012,1.268"/>
</svg>
