<?xml version="1.0" encoding="utf-8"?>
<!-- Generator: Adobe Illustrator 15.1.0, SVG Export Plug-In . SVG Version: 6.00 Build 0)  -->
<!DOCTYPE svg PUBLIC "-//W3C//DTD SVG 1.1//EN" "http://www.w3.org/Graphics/SVG/1.1/DTD/svg11.dtd">
<svg version="1.1" id="Layer_5" xmlns="http://www.w3.org/2000/svg" xmlns:xlink="http://www.w3.org/1999/xlink" x="0px" y="0px"
	 width="20.902px" height="17.256px" viewBox="0 0 20.902 17.256" enable-background="new 0 0 20.902 17.256" xml:space="preserve">
<g>
	<path fill="#00375D" d="M7.479,8.658C7.478,8.625,7.474,8.594,7.474,8.562c0-2.091,1.718-3.815,3.965-4.147l0.842-0.927
		l-2.047,0.224l0.845-1.878L9.2,2.679l0.224-2.047L7.898,2.016L7.479,0L6.456,1.786L5.434,0L5.013,2.016L3.489,0.632l0.223,2.047
		L1.833,1.834l0.846,1.878L0.632,3.488l1.384,1.524L0,5.434l1.786,1.022L0,7.479l2.016,0.42L0.632,9.424l2.047-0.223l-0.846,1.877
		l1.879-0.844L3.489,12.28l1.177-1.069C4.93,10.006,6.027,9.025,7.479,8.658z"/>
</g>
<path fill="#00375D" d="M12.217,5.682c1.516,0,2.862,0.864,3.277,2.103l0.319,0.954l1.004-0.044l0.13-0.008
	c1.444,0,2.619,1.126,2.619,2.51c0,1.383-1.175,2.509-2.619,2.509H8.756c-1.526,0-2.816-0.887-2.816-1.936
	c0-0.791,0.769-1.537,1.868-1.816l1.062-0.27L8.813,8.588L8.81,8.537C8.825,6.961,10.349,5.682,12.217,5.682 M12.217,4.346
	c-2.62,0-4.743,1.889-4.743,4.217c0,0.031,0.004,0.062,0.005,0.096C5.81,9.081,4.604,10.313,4.604,11.77
	c0,1.807,1.858,3.271,4.152,3.271c1.445,0,7.99,0,8.191,0c2.185,0,3.955-1.722,3.955-3.845c0-2.124-1.771-3.846-3.955-3.846
	c-0.063,0-0.124,0.007-0.187,0.01C16.179,5.618,14.366,4.346,12.217,4.346L12.217,4.346z"/>
<path fill="#FFFFFF" stroke="#1C1B1A" stroke-width="1.5327" d="M10.926,17.256"/>
</svg>
